<?xml version="1.0" encoding="UTF-8" standalone="no"?>
<!-- Created with Inkscape (http://www.inkscape.org/) -->

<svg
   xmlns:dc="http://purl.org/dc/elements/1.1/"
   xmlns:cc="http://creativecommons.org/ns#"
   xmlns:rdf="http://www.w3.org/1999/02/22-rdf-syntax-ns#"
   xmlns:svg="http://www.w3.org/2000/svg"
   xmlns="http://www.w3.org/2000/svg"
   xmlns:sodipodi="http://sodipodi.sourceforge.net/DTD/sodipodi-0.dtd"
   xmlns:inkscape="http://www.inkscape.org/namespaces/inkscape"
   width="1096"
   height="1239.373"
   viewBox="0 0 289.98334 327.91746"
   version="1.1"
   id="svg8"
   inkscape:version="0.92.4 (5da689c313, 2019-01-14)"
   sodipodi:docname="icon.svg"
   inkscape:export-filename="/home/orion/Dropbox/Kaherecode/Logo/kaherecode_color_black.png"
   inkscape:export-xdpi="90"
   inkscape:export-ydpi="90">
  <defs
     id="defs2" />
  <sodipodi:namedview
     id="base"
     pagecolor="#ffffff"
     bordercolor="#666666"
     borderopacity="1.0"
     inkscape:pageopacity="0"
     inkscape:pageshadow="2"
     inkscape:zoom="0.5"
     inkscape:cx="311.6497"
     inkscape:cy="536.97098"
     inkscape:document-units="px"
     inkscape:current-layer="g874"
     showgrid="false"
     units="px"
     inkscape:window-width="1920"
     inkscape:window-height="1025"
     inkscape:window-x="0"
     inkscape:window-y="27"
     inkscape:window-maximized="1" />
  <metadata
     id="metadata5">
    <rdf:RDF>
      <cc:Work
         rdf:about="">
        <dc:format>image/svg+xml</dc:format>
        <dc:type
           rdf:resource="http://purl.org/dc/dcmitype/StillImage" />
        <dc:title />
      </cc:Work>
    </rdf:RDF>
  </metadata>
  <g
     inkscape:label="Layer 1"
     inkscape:groupmode="layer"
     id="layer1"
     transform="translate(0,30.917485)">
    <g
       id="g852"
       transform="translate(-1.3796234e-6,1.4496122)"
       style="fill:#ffffff">
      <g
         id="g4544"
         transform="translate(-24.727404,7.6329202)">
        <g
           transform="translate(0.31028466,-0.73818615)"
           id="g858">
          <g
             inkscape:export-ydpi="90"
             inkscape:export-xdpi="90"
             id="g875"
             transform="matrix(0.89049903,0,0,0.89049903,18.550429,16.844437)">
            <g
               style="fill:#e6e6e6"
               transform="translate(-0.58440526,4.3212119)"
               id="g874">
              <g
                 style="fill:#e6e6e6"
                 id="g863"
                 transform="translate(2.4459425,-2.3165684)" />
              <g
                 id="g847">
                <path
                   transform="matrix(1.1229659,0,0,1.1229659,-20.595532,-22.407983)"
                   style="opacity:1;fill:none;fill-opacity:1;stroke:none;stroke-width:34.0898056;stroke-linecap:round;stroke-linejoin:round;stroke-miterlimit:4;stroke-dasharray:none;stroke-opacity:1;paint-order:stroke fill markers"
                   d="M 24.727406,-39.999886 H 314.71074 V 287.91744 H 24.727406 Z"
                   id="rect860" />
                <path
                   transform="matrix(1.4713617,0,0,1.457571,-87.499489,-36.784979)"
                   style="opacity:1;fill:#262626;fill-opacity:1;stroke:#b9a84b;stroke-width:18.73479843;stroke-linecap:round;stroke-linejoin:round;stroke-miterlimit:4;stroke-dasharray:none;stroke-opacity:1;paint-order:stroke fill markers"
                   d="M 272.89882,161.68449 175.17768,218.30554 77.281835,161.98708 77.107135,49.047564 174.82828,-7.5734885 272.72412,48.744975 Z"
                   id="path819" />
                <g
                   aria-label="Kahere"
                   transform="translate(2.4459424,-2.3165689)"
                   style="font-style:normal;font-variant:normal;font-weight:normal;font-stretch:normal;font-size:43.13349533px;line-height:0;font-family:Orbitron;-inkscape-font-specification:Orbitron;letter-spacing:0px;word-spacing:0px;fill:#e6e6e6;fill-opacity:1;stroke:none;stroke-width:1.15536153"
                   id="text842">
                  <path
                     d="M 107.25099,80.23126 96.165677,93.430109 H 87.538978 V 80.23126 h -4.658417 v 31.05612 h 4.658417 V 98.088527 h 8.626699 l 11.085313,13.198853 h 5.52108 v -0.64701 L 100.30649,95.759318 112.77207,80.878262 V 80.23126 Z"
                     style="font-style:normal;font-variant:normal;font-weight:500;font-stretch:normal;font-family:Orbitron;-inkscape-font-specification:'Orbitron Medium';fill:#e6e6e6;stroke-width:1.15536153"
                     id="path851" />
                  <path
                     d="M 136.87831,86.269949 H 117.0369 v 4.658418 h 19.84141 c 0.5176,0 0.94893,0.431335 0.94893,0.948937 v 4.57215 H 117.0369 v 9.230566 c 0,3.10561 2.50174,5.60736 5.60735,5.60736 h 19.84141 V 91.877304 c 0,-3.105612 -2.50174,-5.607355 -5.60735,-5.607355 z m 0.94893,20.359011 h -15.18299 c -0.5176,0 -0.94893,-0.43134 -0.94893,-0.94894 v -4.57215 h 16.13192 z"
                     style="font-style:normal;font-variant:normal;font-weight:500;font-stretch:normal;font-family:Orbitron;-inkscape-font-specification:'Orbitron Medium';fill:#e6e6e6;stroke-width:1.15536153"
                     id="path853" />
                  <path
                     d="M 166.87159,86.269949 H 151.6886 v -8.195364 h -4.65842 v 33.212795 h 4.65842 V 91.877304 c 0,-0.517602 0.43133,-0.948937 0.94894,-0.948937 h 14.23405 c 0.5176,0 0.94894,0.431335 0.94894,0.948937 v 19.410076 h 4.65841 V 91.877304 c 0,-3.105612 -2.54487,-5.607355 -5.60735,-5.607355 z"
                     style="font-style:normal;font-variant:normal;font-weight:500;font-stretch:normal;font-family:Orbitron;-inkscape-font-specification:'Orbitron Medium';fill:#e6e6e6;stroke-width:1.15536153"
                     id="path855" />
                  <path
                     d="m 195.55401,86.269949 h -14.23405 c -3.10561,0 -5.60736,2.501743 -5.60736,5.607355 v 13.802716 c 0,3.10561 2.50175,5.60736 5.60736,5.60736 h 19.84141 v -4.65842 h -19.84141 c -0.5176,0 -0.94894,-0.43134 -0.94894,-0.94894 v -4.57215 h 20.79035 v -9.230566 c 0,-3.105612 -2.50175,-5.607355 -5.60736,-5.607355 z m -15.18299,10.179505 v -4.57215 c 0,-0.517602 0.43134,-0.948937 0.94894,-0.948937 h 14.23405 c 0.5176,0 0.94894,0.431335 0.94894,0.948937 v 4.57215 z"
                     style="font-style:normal;font-variant:normal;font-weight:500;font-stretch:normal;font-family:Orbitron;-inkscape-font-specification:'Orbitron Medium';fill:#e6e6e6;stroke-width:1.15536153"
                     id="path857" />
                  <path
                     d="m 210.34341,86.269949 c -3.10561,0 -5.60735,2.501743 -5.60735,5.607355 v 13.802716 c 0,0 0,0 0,0 v 5.60736 h 4.65842 V 91.877304 c 0,-0.517602 0.43133,-0.948937 0.94893,-0.948937 h 13.97526 v -4.658418 z"
                     style="font-style:normal;font-variant:normal;font-weight:500;font-stretch:normal;font-family:Orbitron;-inkscape-font-specification:'Orbitron Medium';fill:#e6e6e6;stroke-width:1.15536153"
                     id="path859" />
                  <path
                     d="M 246.60655,86.269949 H 232.3725 c -3.10561,0 -5.60735,2.501743 -5.60735,5.607355 v 13.802716 c 0,3.10561 2.50174,5.60736 5.60735,5.60736 h 19.84141 v -4.65842 H 232.3725 c -0.5176,0 -0.94894,-0.43134 -0.94894,-0.94894 v -4.57215 h 20.79035 v -9.230566 c 0,-3.105612 -2.50174,-5.607355 -5.60736,-5.607355 z m -15.18299,10.179505 v -4.57215 c 0,-0.517602 0.43134,-0.948937 0.94894,-0.948937 h 14.23405 c 0.51761,0 0.94894,0.431335 0.94894,0.948937 v 4.57215 z"
                     style="font-style:normal;font-variant:normal;font-weight:500;font-stretch:normal;font-family:Orbitron;-inkscape-font-specification:'Orbitron Medium';fill:#e6e6e6;stroke-width:1.15536153"
                     id="path861" />
                </g>
                <g
                   aria-label="CODE"
                   transform="translate(2.4459424,-2.3165689)"
                   style="font-style:normal;font-weight:normal;font-size:53.73316193px;line-height:0;font-family:sans-serif;letter-spacing:0px;word-spacing:0px;fill:#e6e6e6;fill-opacity:1;stroke:none;stroke-width:1.43928111"
                   id="text846">
                  <path
                     d="m 121.46097,129.84004 v -8.38238 H 90.833071 c -4.40612,0 -7.952508,3.54639 -7.952508,7.95251 v 22.78286 c 0,4.40612 3.546388,7.95251 7.952508,7.95251 h 30.627899 v -8.38237 H 91.209203 v -21.92313 z"
                     style="font-style:normal;font-variant:normal;font-weight:900;font-stretch:normal;font-family:Orbitron;-inkscape-font-specification:'Orbitron Heavy';fill:#e6e6e6;stroke-width:1.43928111"
                     id="path864" />
                  <path
                     d="m 134.90854,121.45766 c -4.40612,0 -7.95251,3.54639 -7.95251,7.95251 v 22.78286 c 0,4.40612 3.54639,7.95251 7.95251,7.95251 h 22.78286 c 4.35239,0 7.95251,-3.54639 7.95251,-7.95251 v -22.78286 c 0,-4.40612 -3.60012,-7.95251 -7.95251,-7.95251 z m 0.37613,8.38238 h 21.92313 v 21.92313 h -21.92313 z"
                     style="font-style:normal;font-variant:normal;font-weight:900;font-stretch:normal;font-family:Orbitron;-inkscape-font-specification:'Orbitron Heavy';fill:#e6e6e6;stroke-width:1.43928111"
                     id="path866" />
                  <path
                     d="m 171.66874,121.45766 v 38.68788 h 30.68163 c 4.40612,0 8.00625,-3.54639 8.00625,-7.95251 v -22.78286 c 0,-4.40612 -3.60013,-7.95251 -8.00625,-7.95251 z m 8.32864,8.38238 h 21.92313 v 21.92313 h -21.92313 z"
                     style="font-style:normal;font-variant:normal;font-weight:900;font-stretch:normal;font-family:Orbitron;-inkscape-font-specification:'Orbitron Heavy';fill:#e6e6e6;stroke-width:1.43928111"
                     id="path868" />
                  <path
                     d="m 252.21391,121.45766 h -35.73255 v 38.68788 h 35.73255 v -8.38237 h -27.29644 v -6.77038 h 21.97686 v -8.38238 h -21.97686 v -6.77037 h 27.29644 z"
                     style="font-style:normal;font-variant:normal;font-weight:900;font-stretch:normal;font-family:Orbitron;-inkscape-font-specification:'Orbitron Heavy';fill:#e6e6e6;stroke-width:1.43928111"
                     id="path870" />
                </g>
                <g
                   aria-label="{"
                   style="font-style:normal;font-weight:normal;font-size:137.00801086px;line-height:0;font-family:sans-serif;letter-spacing:0px;word-spacing:0px;fill:#e6e6e6;fill-opacity:1;stroke:none;stroke-width:3.66985726"
                   id="text853">
                  <path
                     d="m 87.178604,170.37915 v 9.63337 h -4.147703 q -16.657712,0 -22.34408,-4.95048 -5.619469,-4.95049 -5.619469,-19.73504 v -15.98873 q 0,-10.10167 -3.612516,-13.98178 -3.612516,-3.88011 -13.112095,-3.88011 h -4.080805 v -9.56647 h 4.080805 q 9.566478,0 13.112095,-3.81321 3.612516,-3.88011 3.612516,-13.847982 V 78.193092 q 0,-14.784556 5.619469,-19.668142 5.686368,-4.950485 22.34408,-4.950485 h 4.147703 v 9.566477 H 82.62951 q -9.43268,0 -12.309313,2.943532 -2.876633,2.943531 -2.876633,12.376211 v 16.590814 q 0,10.503051 -3.077329,15.252841 -3.010429,4.74979 -10.369258,6.42225 7.425727,1.80626 10.436157,6.55605 3.01043,4.74979 3.01043,15.18595 v 16.59081 q 0,9.43268 2.876633,12.37621 2.876633,2.94354 12.309313,2.94354 z"
                     style="fill:#e6e6e6;stroke-width:3.66985726"
                     id="path873" />
                </g>
                <g
                   aria-label="}"
                   style="font-style:normal;font-weight:normal;font-size:137.00801086px;line-height:0;font-family:sans-serif;letter-spacing:0px;word-spacing:0px;fill:#e6e6e6;fill-opacity:1;stroke:none;stroke-width:3.6698575"
                   id="text857">
                  <path
                     d="m 252.80778,170.37915 h 4.68289 q 9.36578,0 12.17552,-2.87664 2.87663,-2.87663 2.87663,-12.44311 v -16.59081 q 0,-10.43616 3.01043,-15.18595 3.01043,-4.74979 10.43616,-6.55605 -7.42573,-1.67246 -10.43616,-6.42225 -3.01043,-4.74979 -3.01043,-15.252841 V 78.460685 q 0,-9.499578 -2.87663,-12.376211 -2.80974,-2.943532 -12.17552,-2.943532 h -4.68289 v -9.566477 h 4.2146 q 16.65771,0 22.21028,4.950485 5.61947,4.883586 5.61947,19.668142 v 16.055626 q 0,9.967872 3.61252,13.847982 3.61252,3.81321 13.11209,3.81321 h 4.14771 v 9.56647 h -4.14771 q -9.49957,0 -13.11209,3.88011 -3.61252,3.88011 -3.61252,13.98178 V 155.327 q 0,14.78455 -5.61947,19.73504 -5.55257,4.95048 -22.21028,4.95048 h -4.2146 z"
                     style="fill:#e6e6e6;stroke-width:3.6698575"
                     id="path876" />
                </g>
              </g>
            </g>
          </g>
        </g>
      </g>
    </g>
  </g>
</svg>
